<?xml version="1.0" standalone="no"?>
<!DOCTYPE svg PUBLIC "-//W3C//DTD SVG 20010904//EN"
        "http://www.w3.org/TR/2001/REC-SVG-20010904/DTD/svg10.dtd">
<svg version="1.0" xmlns="http://www.w3.org/2000/svg"
     width="680.000000pt" height="240.000000pt" viewBox="0 0 680.000000 240.000000"
     preserveAspectRatio="xMidYMid meet">
    <metadata>
        Created by potrace 1.15, written by Peter Selinger 2001-2017
    </metadata>
    <g transform="translate(0.000000,240.000000) scale(0.100000,-0.100000)"
       fill="#000000" stroke="none">
        <path d="M675 1427 c-61 -21 -97 -42 -131 -79 -103 -109 -50 -267 108 -326 30
-11 94 -30 142 -41 101 -24 136 -41 165 -77 28 -35 26 -66 -4 -102 -62 -74
-244 -67 -350 13 -52 40 -81 44 -119 14 -34 -27 -36 -77 -4 -107 33 -30 143
-79 207 -93 79 -16 225 -7 281 18 99 44 149 115 150 211 0 132 -76 193 -309
248 -131 30 -174 58 -174 112 0 61 54 92 160 92 72 0 117 -16 187 -63 21 -15
47 -27 56 -27 26 0 70 39 70 61 0 32 -66 94 -132 125 -54 24 -78 29 -163 31
-63 2 -115 -2 -140 -10z"/>
        <path d="M1446 1679 l-26 -20 0 -412 c0 -392 1 -414 21 -457 31 -68 66 -108
117 -134 88 -44 197 -42 222 4 31 58 -5 110 -75 110 -64 0 -103 23 -126 73
-16 37 -19 67 -19 238 l0 197 86 3 c92 4 114 17 114 65 0 42 -44 64 -126 64
l-74 0 0 124 c0 123 0 125 -26 145 -15 12 -34 21 -44 21 -10 0 -29 -9 -44 -21z"/>
        <path fill="#009EDB" d="M2276 1420 c-182 -65 -288 -229 -273 -424 13 -170 105 -300 252 -355
51 -19 77 -21 290 -21 222 0 236 1 255 20 19 19 20 33 20 228 0 227 -10 291
-57 371 -43 74 -92 119 -170 158 -68 33 -85 38 -167 40 -73 3 -103 -1 -150
-17z m239 -134 c88 -41 139 -109 154 -206 26 -165 -74 -309 -229 -327 -182
-21 -326 143 -291 334 33 173 212 272 366 199z"/>
        <path d="M3345 1422 c-123 -43 -202 -117 -246 -229 -34 -86 -33 -233 0 -323
34 -89 130 -187 216 -220 143 -55 322 -31 410 54 47 45 50 60 17 99 -22 25
-58 21 -119 -14 -68 -39 -147 -48 -224 -26 -111 33 -181 130 -183 255 -1 102
19 158 78 217 55 55 103 75 177 75 67 0 113 -17 168 -60 29 -23 61 -40 76 -40
30 0 65 32 65 60 0 33 -68 98 -138 132 -58 29 -78 33 -157 36 -66 2 -103 -2
-140 -16z"/>
        <path d="M4113 1780 c-12 -5 -26 -18 -32 -29 -15 -27 -15 -1065 0 -1092 15
-30 57 -42 91 -28 37 15 48 58 48 190 l0 105 35 34 c22 22 39 31 43 24 47 -70
297 -363 313 -367 52 -14 102 39 83 89 -5 13 -74 104 -153 201 l-144 176 49
46 c27 25 93 86 147 134 80 73 97 94 97 117 0 34 -34 70 -66 70 -14 0 -87 -58
-210 -169 l-189 -168 -5 314 -5 315 -28 24 c-30 26 -40 28 -74 14z"/>
        <path d="M5145 1427 c-69 -23 -118 -54 -167 -104 -143 -147 -150 -411 -14
-568 95 -111 287 -163 437 -119 69 21 139 56 163 83 26 28 12 70 -28 90 -27
13 -34 11 -102 -24 -66 -34 -82 -38 -147 -38 -141 0 -251 81 -283 208 l-6 25
299 0 c290 0 301 1 319 21 33 36 17 163 -31 259 -29 57 -102 125 -163 153 -59
26 -216 34 -277 14z m242 -143 c24 -14 54 -42 67 -62 25 -39 51 -110 43 -118
-2 -2 -115 -3 -250 -2 l-245 3 13 38 c41 119 144 183 275 171 33 -3 71 -15 97
-30z"/>
        <path d="M5973 1690 c-43 -17 -44 -31 -41 -458 3 -388 4 -409 24 -452 43 -93
132 -152 234 -154 74 -1 110 21 110 69 0 50 -28 75 -87 75 -57 1 -87 16 -114
56 -17 26 -19 48 -19 242 l0 212 75 0 c83 0 115 18 115 63 0 48 -22 61 -109
65 l-81 4 0 103 c0 117 -11 158 -46 174 -29 13 -31 13 -61 1z"/>
    </g>
</svg>
